<svg id="Capa_1" data-name="Capa 1" xmlns="http://www.w3.org/2000/svg" viewBox="0 0 100.5 100.5"><defs><style>.cls-1{opacity:0.66;}.cls-2{fill:#8b8b8b;}.cls-10,.cls-2,.cls-3,.cls-5,.cls-7,.cls-9{stroke:#000;}.cls-10,.cls-2,.cls-3,.cls-5,.cls-6,.cls-7,.cls-9{stroke-miterlimit:10;}.cls-3,.cls-5,.cls-6,.cls-7,.cls-9{fill:none;}.cls-3,.cls-9{stroke-width:0.75px;}.cls-10,.cls-4{fill:#fff;}.cls-5{stroke-width:0.5px;}.cls-6{stroke:#fff;}.cls-6,.cls-9{stroke-linecap:round;}.cls-8{fill:#f9ac00;}.cls-10{stroke-width:3px;}</style></defs><title>carros con ciudad</title><g class="cls-1"><circle class="cls-2" cx="50.38" cy="50.68" r="48.82"/><polyline class="cls-3" points="37.02 3.71 37.02 16.32 15.75 16.32"/><line class="cls-3" x1="67.84" y1="5.08" x2="67.84" y2="60.35"/><line class="cls-3" x1="67.84" y1="10.78" x2="78.53" y2="10.78"/><line class="cls-3" x1="95.2" y1="60.35" x2="95.2" y2="31.27"/><line class="cls-3" x1="15.75" y1="16.32" x2="15.75" y2="60.35"/><line class="cls-3" x1="37.02" y1="16.32" x2="37.02" y2="60.35"/><rect class="cls-4" x="19.3" y="20.79" width="15.67" height="6.03"/><rect class="cls-4" x="19.3" y="30.46" width="15.67" height="6.03"/><rect class="cls-4" x="19.3" y="40.14" width="15.67" height="6.03"/><rect class="cls-4" x="19.3" y="49.82" width="15.67" height="6.03"/><rect class="cls-5" x="18.7" y="20.02" width="15.67" height="6.03"/><rect class="cls-5" x="18.7" y="29.7" width="15.67" height="6.03"/><rect class="cls-5" x="18.7" y="39.38" width="15.67" height="6.03"/><rect class="cls-5" x="18.7" y="49.06" width="15.67" height="6.03"/><rect class="cls-4" x="41.73" y="6.91" width="7.46" height="7.14"/><rect class="cls-4" x="41.73" y="18.38" width="7.46" height="7.14"/><rect class="cls-4" x="41.73" y="29.85" width="7.46" height="7.14"/><rect class="cls-4" x="41.73" y="41.32" width="7.46" height="7.14"/><rect class="cls-5" x="41.01" y="6.17" width="7.46" height="7.14"/><rect class="cls-5" x="41.01" y="17.64" width="7.46" height="7.14"/><rect class="cls-5" x="41.01" y="29.11" width="7.46" height="7.14"/><rect class="cls-5" x="41.01" y="40.58" width="7.46" height="7.14"/><rect class="cls-4" x="71.11" y="15.76" width="9.13" height="8.27"/><rect class="cls-4" x="71.11" y="29.04" width="9.13" height="8.27"/><rect class="cls-4" x="71.11" y="42.31" width="9.13" height="8.27"/><rect class="cls-5" x="70.23" y="14.9" width="9.13" height="8.27"/><rect class="cls-5" x="70.23" y="28.18" width="9.13" height="8.27"/><rect class="cls-5" x="70.23" y="41.45" width="9.13" height="8.27"/><path class="cls-4" d="M90.84,24H84V15.76h0c.59.58,1.36,1.35,2.22,2.3.59.66,1.47,1.62,2.51,3C89.32,21.8,90.05,22.81,90.84,24Z"/><rect class="cls-4" x="83.99" y="29.04" width="9.13" height="8.27"/><rect class="cls-4" x="83.99" y="42.31" width="9.13" height="8.27"/><polyline class="cls-5" points="90.72 23.17 83.11 23.17 83.11 14.9 83.6 14.9"/><rect class="cls-5" x="83.11" y="28.18" width="9.13" height="8.27"/><rect class="cls-5" x="83.11" y="41.45" width="9.13" height="8.27"/><rect class="cls-4" x="57.12" y="6.84" width="7.46" height="7.14"/><rect class="cls-4" x="57.12" y="18.31" width="7.46" height="7.14"/><rect class="cls-4" x="57.12" y="29.78" width="7.46" height="7.14"/><rect class="cls-4" x="57.12" y="41.25" width="7.46" height="7.14"/><rect class="cls-5" x="56.4" y="6.1" width="7.46" height="7.14"/><rect class="cls-5" x="56.4" y="17.57" width="7.46" height="7.14"/><rect class="cls-5" x="56.4" y="29.04" width="7.46" height="7.14"/><rect class="cls-5" x="56.4" y="40.51" width="7.46" height="7.14"/><path class="cls-4" d="M13,32.74H5.39c.35-.92.75-1.88,1.22-2.87A39.85,39.85,0,0,1,8.92,25.6H13Z"/><rect class="cls-4" x="5.58" y="37.07" width="7.46" height="7.14"/><rect class="cls-4" x="5.58" y="48.54" width="7.46" height="7.14"/><polyline class="cls-5" points="8.94 24.86 12.33 24.86 12.33 32 5.26 32"/><rect class="cls-5" x="4.87" y="36.32" width="7.46" height="7.14"/><rect class="cls-5" x="4.87" y="47.79" width="7.46" height="7.14"/><line class="cls-3" x1="2.51" y1="60.35" x2="98.24" y2="60.35"/><line class="cls-6" x1="20.3" y1="78.07" x2="46.12" y2="78.07"/><line class="cls-6" x1="55.42" y1="78.07" x2="81.24" y2="78.07"/></g><circle class="cls-7" cx="50.38" cy="50.68" r="48.82"/><path class="cls-8" d="M22,66.81H16.37a2.77,2.77,0,0,1-2.56-1.71l-1.08-2.57a2.77,2.77,0,0,1,1.53-3.66,55.09,55.09,0,0,1,10.83-3A54.33,54.33,0,0,1,37,55.21c3-1.61,5.12-3.23,8.15-4.84A21.42,21.42,0,0,1,48,48.93c.34-.14.67-.26,1-.37a5.76,5.76,0,0,1,1.93-.33H64.2a5.59,5.59,0,0,1,2.6.64l9.58,5H83.2a6.47,6.47,0,0,1,6.47,6.47v1.87a3.25,3.25,0,0,1-2,3,30.87,30.87,0,0,1-3.43,1.1c-1.65.42-3.51.6-5.48.89Z"/><path class="cls-9" d="M19.79,66.45H15a2.77,2.77,0,0,1-2.56-1.7l-1.08-2.57a2.77,2.77,0,0,1,1.53-3.66,54.38,54.38,0,0,1,22.69-3.66c3-1.61,5.12-3.23,8.15-4.84a20.3,20.3,0,0,1,2.88-1.44c.34-.14.67-.27,1-.38a6,6,0,0,1,1.93-.32H62.78a5.59,5.59,0,0,1,2.6.64l9.58,5h6.82A6.47,6.47,0,0,1,88.25,60c0,1.49.22,3.11-1,4.2-2.11,1.9-5.61,2-8.28,2.43"/><circle class="cls-10" cx="27.72" cy="64.57" r="5.89"/><circle class="cls-10" cx="71.31" cy="64.57" r="5.89"/><line class="cls-9" x1="35.64" y1="66.92" x2="63.46" y2="66.92"/><polyline class="cls-9" points="35.87 54.87 62.06 54.87 74.96 53.55"/><path class="cls-9" d="M59.73,66.92a25.11,25.11,0,0,0,2-6.45,24.65,24.65,0,0,0,.31-5.6"/><path class="cls-4" d="M44.12,53.63c1.16-.72,2.42-1.45,3.79-2.16.85-.44,1.69-.84,2.5-1.2a2.86,2.86,0,0,1,.71-.31,2.73,2.73,0,0,1,.76-.1H63.8a3,3,0,0,1,1.36.34l5.27,2.53c-3.29.35-6.74.63-10.34.8C54.43,53.81,49.09,53.81,44.12,53.63Z"/></svg>