<svg id="Capa_1" data-name="Capa 1" xmlns="http://www.w3.org/2000/svg" viewBox="0 0 100.5 100.5"><defs><style>.cls-1{opacity:0.66;}.cls-2{fill:#8b8b8b;}.cls-10,.cls-2,.cls-3,.cls-5,.cls-7,.cls-9{stroke:#000;}.cls-10,.cls-2,.cls-3,.cls-5,.cls-6,.cls-7,.cls-9{stroke-miterlimit:10;}.cls-3,.cls-5,.cls-6,.cls-7,.cls-9{fill:none;}.cls-3,.cls-9{stroke-width:0.75px;}.cls-10,.cls-4{fill:#fff;}.cls-5{stroke-width:0.5px;}.cls-6{stroke:#fff;}.cls-6,.cls-9{stroke-linecap:round;}.cls-8{fill:#f9ac00;}.cls-10{stroke-width:3px;}</style></defs><title>carros con ciudad</title><g class="cls-1"><circle class="cls-2" cx="50.13" cy="50.68" r="48.82"/><polyline class="cls-3" points="36.77 3.71 36.77 16.32 15.51 16.32"/><line class="cls-3" x1="67.6" y1="5.08" x2="67.6" y2="60.35"/><line class="cls-3" x1="67.6" y1="10.78" x2="78.28" y2="10.78"/><line class="cls-3" x1="94.95" y1="60.35" x2="94.95" y2="31.27"/><line class="cls-3" x1="15.51" y1="16.32" x2="15.51" y2="60.35"/><line class="cls-3" x1="36.77" y1="16.32" x2="36.77" y2="60.35"/><rect class="cls-4" x="19.05" y="20.79" width="15.67" height="6.03"/><rect class="cls-4" x="19.05" y="30.46" width="15.67" height="6.03"/><rect class="cls-4" x="19.05" y="40.14" width="15.67" height="6.03"/><rect class="cls-4" x="19.05" y="49.82" width="15.67" height="6.03"/><rect class="cls-5" x="18.45" y="20.02" width="15.67" height="6.03"/><rect class="cls-5" x="18.45" y="29.7" width="15.67" height="6.03"/><rect class="cls-5" x="18.45" y="39.38" width="15.67" height="6.03"/><rect class="cls-5" x="18.45" y="49.06" width="15.67" height="6.03"/><rect class="cls-4" x="41.48" y="6.91" width="7.46" height="7.14"/><rect class="cls-4" x="41.48" y="18.38" width="7.46" height="7.14"/><rect class="cls-4" x="41.48" y="29.85" width="7.46" height="7.14"/><rect class="cls-4" x="41.48" y="41.32" width="7.46" height="7.14"/><rect class="cls-5" x="40.76" y="6.17" width="7.46" height="7.14"/><rect class="cls-5" x="40.76" y="17.64" width="7.46" height="7.14"/><rect class="cls-5" x="40.76" y="29.11" width="7.46" height="7.14"/><rect class="cls-5" x="40.76" y="40.58" width="7.46" height="7.14"/><rect class="cls-4" x="70.86" y="15.76" width="9.13" height="8.27"/><rect class="cls-4" x="70.86" y="29.04" width="9.13" height="8.27"/><rect class="cls-4" x="70.86" y="42.31" width="9.13" height="8.27"/><rect class="cls-5" x="69.98" y="14.9" width="9.13" height="8.27"/><rect class="cls-5" x="69.98" y="28.18" width="9.13" height="8.27"/><rect class="cls-5" x="69.98" y="41.45" width="9.13" height="8.27"/><path class="cls-4" d="M90.59,24H83.74V15.76h0c.59.58,1.36,1.35,2.22,2.3.6.66,1.47,1.62,2.51,3C89.07,21.8,89.81,22.81,90.59,24Z"/><rect class="cls-4" x="83.74" y="29.04" width="9.13" height="8.27"/><rect class="cls-4" x="83.74" y="42.31" width="9.13" height="8.27"/><polyline class="cls-5" points="90.47 23.17 82.87 23.17 82.87 14.9 83.35 14.9"/><rect class="cls-5" x="82.87" y="28.18" width="9.13" height="8.27"/><rect class="cls-5" x="82.87" y="41.45" width="9.13" height="8.27"/><rect class="cls-4" x="56.87" y="6.84" width="7.46" height="7.14"/><rect class="cls-4" x="56.87" y="18.31" width="7.46" height="7.14"/><rect class="cls-4" x="56.87" y="29.78" width="7.46" height="7.14"/><rect class="cls-4" x="56.87" y="41.25" width="7.46" height="7.14"/><rect class="cls-5" x="56.16" y="6.1" width="7.46" height="7.14"/><rect class="cls-5" x="56.16" y="17.57" width="7.46" height="7.14"/><rect class="cls-5" x="56.16" y="29.04" width="7.46" height="7.14"/><rect class="cls-5" x="56.16" y="40.51" width="7.46" height="7.14"/><path class="cls-4" d="M12.8,32.74H5.14c.35-.92.75-1.88,1.22-2.87A43.75,43.75,0,0,1,8.67,25.6H12.8Z"/><rect class="cls-4" x="5.34" y="37.07" width="7.46" height="7.14"/><rect class="cls-4" x="5.34" y="48.54" width="7.46" height="7.14"/><polyline class="cls-5" points="8.69 24.86 12.08 24.86 12.08 32 5.01 32"/><rect class="cls-5" x="4.62" y="36.32" width="7.46" height="7.14"/><rect class="cls-5" x="4.62" y="47.79" width="7.46" height="7.14"/><line class="cls-3" x1="2.26" y1="60.35" x2="97.99" y2="60.35"/><line class="cls-6" x1="20.05" y1="78.07" x2="45.87" y2="78.07"/><line class="cls-6" x1="55.18" y1="78.07" x2="80.99" y2="78.07"/></g><circle class="cls-7" cx="50.13" cy="50.68" r="48.82"/><path class="cls-8" d="M14.48,65h-.87a2,2,0,0,1-2-2V53.43a3.17,3.17,0,0,1,3.17-3.17H29.65L40.72,39.19A1.85,1.85,0,0,1,42,38.65h8.09A1.87,1.87,0,0,1,52,40.51V51H89.26V65H14.48Z"/><polyline class="cls-9" points="51.38 50.33 88.63 50.33 88.63 64.36 83.03 64.36"/><circle class="cls-10" cx="22.46" cy="63.41" r="7.36"/><circle class="cls-10" cx="73.67" cy="64.78" r="7.36"/><line class="cls-9" x1="51.38" y1="64.36" x2="63.78" y2="64.36"/><path class="cls-4" d="M49.1,49.49H32.84l8.57-8.57h6.22A1.47,1.47,0,0,1,49.1,42.4Z"/><path class="cls-9" d="M13.22,64.36H13a2,2,0,0,1-2-2V52.8a3.16,3.16,0,0,1,3.17-3.16H29L40.09,38.57A1.88,1.88,0,0,1,41.42,38h8.09a1.87,1.87,0,0,1,1.87,1.87V64.36H31.7"/><path class="cls-9" d="M32.84,49.49V60.37a1.36,1.36,0,0,0,1.35,1.36H47.75a1.35,1.35,0,0,0,1.35-1.36V49.49H33"/></svg>