<svg id="Capa_1" data-name="Capa 1" xmlns="http://www.w3.org/2000/svg" viewBox="0 0 100.5 100.5"><defs><style>.cls-1{opacity:0.66;}.cls-2{fill:#8b8b8b;}.cls-10,.cls-2,.cls-3,.cls-5,.cls-7,.cls-9{stroke:#000;}.cls-10,.cls-2,.cls-3,.cls-5,.cls-6,.cls-7,.cls-9{stroke-miterlimit:10;}.cls-3,.cls-5,.cls-6,.cls-7,.cls-9{fill:none;}.cls-3,.cls-9{stroke-width:0.75px;}.cls-10,.cls-4{fill:#fff;}.cls-5{stroke-width:0.5px;}.cls-6{stroke:#fff;}.cls-6,.cls-9{stroke-linecap:round;}.cls-8{fill:#f9ac00;}.cls-10{stroke-width:3px;}</style></defs><title>carros con ciudad</title><g class="cls-1"><circle class="cls-2" cx="50.28" cy="50.68" r="48.82"/><polyline class="cls-3" points="36.92 3.71 36.92 16.32 15.66 16.32"/><line class="cls-3" x1="67.75" y1="5.08" x2="67.75" y2="60.35"/><line class="cls-3" x1="67.75" y1="10.78" x2="78.43" y2="10.78"/><line class="cls-3" x1="95.1" y1="60.35" x2="95.1" y2="31.27"/><line class="cls-3" x1="15.66" y1="16.32" x2="15.66" y2="60.35"/><line class="cls-3" x1="36.92" y1="16.32" x2="36.92" y2="60.35"/><rect class="cls-4" x="19.2" y="20.79" width="15.67" height="6.03"/><rect class="cls-4" x="19.2" y="30.46" width="15.67" height="6.03"/><rect class="cls-4" x="19.2" y="40.14" width="15.67" height="6.03"/><rect class="cls-4" x="19.2" y="49.82" width="15.67" height="6.03"/><rect class="cls-5" x="18.6" y="20.02" width="15.67" height="6.03"/><rect class="cls-5" x="18.6" y="29.7" width="15.67" height="6.03"/><rect class="cls-5" x="18.6" y="39.38" width="15.67" height="6.03"/><rect class="cls-5" x="18.6" y="49.06" width="15.67" height="6.03"/><rect class="cls-4" x="41.63" y="6.91" width="7.46" height="7.14"/><rect class="cls-4" x="41.63" y="18.38" width="7.46" height="7.14"/><rect class="cls-4" x="41.63" y="29.85" width="7.46" height="7.14"/><rect class="cls-4" x="41.63" y="41.32" width="7.46" height="7.14"/><rect class="cls-5" x="40.92" y="6.17" width="7.46" height="7.14"/><rect class="cls-5" x="40.92" y="17.64" width="7.46" height="7.14"/><rect class="cls-5" x="40.92" y="29.11" width="7.46" height="7.14"/><rect class="cls-5" x="40.92" y="40.58" width="7.46" height="7.14"/><rect class="cls-4" x="71.01" y="15.76" width="9.13" height="8.27"/><rect class="cls-4" x="71.01" y="29.04" width="9.13" height="8.27"/><rect class="cls-4" x="71.01" y="42.31" width="9.13" height="8.27"/><rect class="cls-5" x="70.13" y="14.9" width="9.13" height="8.27"/><rect class="cls-5" x="70.13" y="28.18" width="9.13" height="8.27"/><rect class="cls-5" x="70.13" y="41.45" width="9.13" height="8.27"/><path class="cls-4" d="M90.75,24H83.89V15.76h0c.59.58,1.36,1.35,2.22,2.3.6.66,1.47,1.62,2.51,3C89.22,21.8,90,22.81,90.75,24Z"/><rect class="cls-4" x="83.89" y="29.04" width="9.13" height="8.27"/><rect class="cls-4" x="83.89" y="42.31" width="9.13" height="8.27"/><polyline class="cls-5" points="90.62 23.17 83.02 23.17 83.02 14.9 83.5 14.9"/><rect class="cls-5" x="83.02" y="28.18" width="9.13" height="8.27"/><rect class="cls-5" x="83.02" y="41.45" width="9.13" height="8.27"/><rect class="cls-4" x="57.02" y="6.84" width="7.46" height="7.14"/><rect class="cls-4" x="57.02" y="18.31" width="7.46" height="7.14"/><rect class="cls-4" x="57.02" y="29.78" width="7.46" height="7.14"/><rect class="cls-4" x="57.02" y="41.25" width="7.46" height="7.14"/><rect class="cls-5" x="56.31" y="6.1" width="7.46" height="7.14"/><rect class="cls-5" x="56.31" y="17.57" width="7.46" height="7.14"/><rect class="cls-5" x="56.31" y="29.04" width="7.46" height="7.14"/><rect class="cls-5" x="56.31" y="40.51" width="7.46" height="7.14"/><path class="cls-4" d="M13,32.74H5.29c.35-.92.75-1.88,1.22-2.87A41.68,41.68,0,0,1,8.83,25.6H13Z"/><rect class="cls-4" x="5.49" y="37.07" width="7.46" height="7.14"/><rect class="cls-4" x="5.49" y="48.54" width="7.46" height="7.14"/><polyline class="cls-5" points="8.84 24.86 12.23 24.86 12.23 32 5.16 32"/><rect class="cls-5" x="4.77" y="36.32" width="7.46" height="7.14"/><rect class="cls-5" x="4.77" y="47.79" width="7.46" height="7.14"/><line class="cls-3" x1="2.42" y1="60.35" x2="98.15" y2="60.35"/><line class="cls-6" x1="20.2" y1="78.07" x2="46.02" y2="78.07"/><line class="cls-6" x1="55.33" y1="78.07" x2="81.14" y2="78.07"/></g><circle class="cls-7" cx="50.28" cy="50.68" r="48.82"/><path class="cls-8" d="M82.11,66.82h.28a3.58,3.58,0,0,0,3.08-1.77l1.63-2.8a3.53,3.53,0,0,0,.49-1.8V51.69A3.23,3.23,0,0,0,87,49.77l-3.86-5.22V42.94a1.46,1.46,0,0,0-1.46-1.46H48.53a43.13,43.13,0,0,0-5.45,3.78,44,44,0,0,0-5.57,5.44,40.1,40.1,0,0,0-20.84,3.85,4.72,4.72,0,0,0-2.7,4,12.53,12.53,0,0,0,.55,4.34A12.2,12.2,0,0,0,15.41,65a3.43,3.43,0,0,0,3,1.82H82.11Z"/><path class="cls-9" d="M19.76,65.92H17.45a3.42,3.42,0,0,1-3-1.82,13,13,0,0,1-.9-2.14A12.5,12.5,0,0,1,13,57.62a4.7,4.7,0,0,1,2.7-4,39.62,39.62,0,0,1,8.53-3,40.33,40.33,0,0,1,12.31-.86,43.33,43.33,0,0,1,5.57-5.44,42.42,42.42,0,0,1,5.45-3.78H80.64A1.46,1.46,0,0,1,82.11,42v1.61L86,48.87a3.22,3.22,0,0,1,.63,1.92v8.77a3.51,3.51,0,0,1-.48,1.79l-1.63,2.8a3.58,3.58,0,0,1-3.08,1.77h-.28"/><circle class="cls-10" cx="29.06" cy="65.02" r="7.12"/><circle class="cls-10" cx="72.21" cy="65.02" r="7.12"/><line class="cls-9" x1="38.47" y1="65.92" x2="62.8" y2="65.92"/><line class="cls-9" x1="36.53" y1="49.8" x2="70.27" y2="49.8"/><path class="cls-4" d="M43.4,48a17.47,17.47,0,0,1,1.73-2,18.21,18.21,0,0,1,4.16-3.07H71.24a.37.37,0,0,1,.35.23A15.68,15.68,0,0,1,72.34,46a14.92,14.92,0,0,1,.21,1.86.36.36,0,0,1-.37.38Z"/><path class="cls-9" d="M60.14,40.58A32.34,32.34,0,0,0,57,45.15a33.3,33.3,0,0,0-2.17,4.65c-.24,2.09-.41,4.37-.45,6.82a70.12,70.12,0,0,0,.45,9.3"/><path class="cls-9" d="M67.89,40.58a32.65,32.65,0,0,1,2,18.73"/></svg>