<svg id="Capa_1" data-name="Capa 1" xmlns="http://www.w3.org/2000/svg" viewBox="0 0 100.5 100.5"><defs><style>.cls-1{opacity:0.66;}.cls-2{fill:#8b8b8b;}.cls-10,.cls-2,.cls-3,.cls-5,.cls-7,.cls-9{stroke:#000;}.cls-10,.cls-2,.cls-3,.cls-5,.cls-6,.cls-7,.cls-9{stroke-miterlimit:10;}.cls-3,.cls-5,.cls-6,.cls-7,.cls-9{fill:none;}.cls-3,.cls-9{stroke-width:0.75px;}.cls-10,.cls-4{fill:#fff;}.cls-5{stroke-width:0.5px;}.cls-6{stroke:#fff;}.cls-6,.cls-9{stroke-linecap:round;}.cls-8{fill:#f9ac00;}.cls-10{stroke-width:4px;}</style></defs><title>carros con ciudad</title><g class="cls-1"><circle class="cls-2" cx="50.13" cy="50.68" r="48.82"/><polyline class="cls-3" points="36.77 3.71 36.77 16.32 15.51 16.32"/><line class="cls-3" x1="67.6" y1="5.08" x2="67.6" y2="60.35"/><line class="cls-3" x1="67.6" y1="10.78" x2="78.28" y2="10.78"/><line class="cls-3" x1="94.95" y1="60.35" x2="94.95" y2="31.27"/><line class="cls-3" x1="15.51" y1="16.32" x2="15.51" y2="60.35"/><line class="cls-3" x1="36.77" y1="16.32" x2="36.77" y2="60.35"/><rect class="cls-4" x="19.05" y="20.79" width="15.67" height="6.03"/><rect class="cls-4" x="19.05" y="30.46" width="15.67" height="6.03"/><rect class="cls-4" x="19.05" y="40.14" width="15.67" height="6.03"/><rect class="cls-4" x="19.05" y="49.82" width="15.67" height="6.03"/><rect class="cls-5" x="18.45" y="20.02" width="15.67" height="6.03"/><rect class="cls-5" x="18.45" y="29.7" width="15.67" height="6.03"/><rect class="cls-5" x="18.45" y="39.38" width="15.67" height="6.03"/><rect class="cls-5" x="18.45" y="49.06" width="15.67" height="6.03"/><rect class="cls-4" x="41.48" y="6.91" width="7.46" height="7.14"/><rect class="cls-4" x="41.48" y="18.38" width="7.46" height="7.14"/><rect class="cls-4" x="41.48" y="29.85" width="7.46" height="7.14"/><rect class="cls-4" x="41.48" y="41.32" width="7.46" height="7.14"/><rect class="cls-5" x="40.76" y="6.17" width="7.46" height="7.14"/><rect class="cls-5" x="40.76" y="17.64" width="7.46" height="7.14"/><rect class="cls-5" x="40.76" y="29.11" width="7.46" height="7.14"/><rect class="cls-5" x="40.76" y="40.58" width="7.46" height="7.14"/><rect class="cls-4" x="70.86" y="15.76" width="9.13" height="8.27"/><rect class="cls-4" x="70.86" y="29.04" width="9.13" height="8.27"/><rect class="cls-4" x="70.86" y="42.31" width="9.13" height="8.27"/><rect class="cls-5" x="69.98" y="14.9" width="9.13" height="8.27"/><rect class="cls-5" x="69.98" y="28.18" width="9.13" height="8.27"/><rect class="cls-5" x="69.98" y="41.45" width="9.13" height="8.27"/><path class="cls-4" d="M90.59,24H83.74V15.76h0c.59.58,1.36,1.35,2.22,2.3.6.66,1.47,1.62,2.51,3C89.07,21.8,89.81,22.81,90.59,24Z"/><rect class="cls-4" x="83.74" y="29.04" width="9.13" height="8.27"/><rect class="cls-4" x="83.74" y="42.31" width="9.13" height="8.27"/><polyline class="cls-5" points="90.47 23.17 82.87 23.17 82.87 14.9 83.35 14.9"/><rect class="cls-5" x="82.87" y="28.18" width="9.13" height="8.27"/><rect class="cls-5" x="82.87" y="41.45" width="9.13" height="8.27"/><rect class="cls-4" x="56.87" y="6.84" width="7.46" height="7.14"/><rect class="cls-4" x="56.87" y="18.31" width="7.46" height="7.14"/><rect class="cls-4" x="56.87" y="29.78" width="7.46" height="7.14"/><rect class="cls-4" x="56.87" y="41.25" width="7.46" height="7.14"/><rect class="cls-5" x="56.16" y="6.1" width="7.46" height="7.14"/><rect class="cls-5" x="56.16" y="17.57" width="7.46" height="7.14"/><rect class="cls-5" x="56.16" y="29.04" width="7.46" height="7.14"/><rect class="cls-5" x="56.16" y="40.51" width="7.46" height="7.14"/><path class="cls-4" d="M12.8,32.74H5.14c.35-.92.75-1.88,1.22-2.87A43.75,43.75,0,0,1,8.67,25.6H12.8Z"/><rect class="cls-4" x="5.34" y="37.07" width="7.46" height="7.14"/><rect class="cls-4" x="5.34" y="48.54" width="7.46" height="7.14"/><polyline class="cls-5" points="8.69 24.86 12.08 24.86 12.08 32 5.01 32"/><rect class="cls-5" x="4.62" y="36.32" width="7.46" height="7.14"/><rect class="cls-5" x="4.62" y="47.79" width="7.46" height="7.14"/><line class="cls-3" x1="2.26" y1="60.35" x2="97.99" y2="60.35"/><line class="cls-6" x1="20.05" y1="78.07" x2="45.87" y2="78.07"/><line class="cls-6" x1="55.18" y1="78.07" x2="80.99" y2="78.07"/></g><circle class="cls-7" cx="50.13" cy="50.68" r="48.82"/><path class="cls-8" d="M82.12,55.54l-9.26-8.39a5.56,5.56,0,0,0-3.93-1.62H50.38a5.57,5.57,0,0,0-3.61,1.33L39,53.49a7.68,7.68,0,0,1-3.4,1.66l-12,2.42a5.73,5.73,0,0,0-4.58,5.6v5.26h-.91a.92.92,0,0,0-.92.91.94.94,0,0,0,.92.92H62.41l15.27-.44h3A4.31,4.31,0,0,0,85,65.51h0a2.74,2.74,0,0,0-2.74-2.74h-.13V55.54"/><path class="cls-9" d="M80.14,54.82v7.23h.14A2.74,2.74,0,0,1,83,64.79h0a4.31,4.31,0,0,1-4.31,4.31h-3"/><path class="cls-9" d="M23.63,69.54H16.18a.94.94,0,0,1-.91-.92.91.91,0,0,1,.91-.91h.92V62.45a5.71,5.71,0,0,1,4.58-5.6l12-2.43A7.46,7.46,0,0,0,37,52.77l7.76-6.63a5.53,5.53,0,0,1,3.61-1.33H67a5.58,5.58,0,0,1,3.93,1.62l9.25,8.39"/><circle class="cls-10" cx="32.1" cy="66.46" r="6.12"/><circle class="cls-10" cx="66.79" cy="66.46" r="6.12"/><line class="cls-9" x1="41" y1="69.54" x2="58.19" y2="69.54"/><path class="cls-4" d="M43.7,54.62H58.09a.9.9,0,0,0,.75-.39L63,48.05a.89.89,0,0,0-.74-1.39H49.18a.89.89,0,0,0-.67.3L43,53.14A.89.89,0,0,0,43.7,54.62Z"/><path class="cls-4" d="M61.84,54.24l4.45-7a1.28,1.28,0,0,1,1.08-.59h0a1.29,1.29,0,0,1,.92.39l6.88,7.16a.24.24,0,0,1-.18.41H62.05A.24.24,0,0,1,61.84,54.24Z"/></svg>